<svg width="24" height="20" viewBox="0 0 24 20" fill="none" xmlns="http://www.w3.org/2000/svg">
<path d="M6 0.5H2C1.46957 0.5 0.960859 0.710714 0.585786 1.08579C0.210714 1.46086 0 1.96957 0 2.5V17.5C0 18.0304 0.210714 18.5391 0.585786 18.9142C0.960859 19.2893 1.46957 19.5 2 19.5H6C6.26522 19.5 6.51957 19.3946 6.70711 19.2071C6.89464 19.0196 7 18.7652 7 18.5C7 18.2348 6.89464 17.9804 6.70711 17.7929C6.51957 17.6054 6.26522 17.5 6 17.5H2V2.5H6C6.26522 2.5 6.51957 2.39464 6.70711 2.20711C6.89464 2.01957 7 1.76522 7 1.5C7 1.23478 6.89464 0.98043 6.70711 0.792893C6.51957 0.605357 6.26522 0.5 6 0.5Z" fill="#222222"/>
<path d="M22 0.5H18C17.7348 0.5 17.4804 0.605357 17.2929 0.792893C17.1054 0.98043 17 1.23478 17 1.5C17 1.76522 17.1054 2.01957 17.2929 2.20711C17.4804 2.39464 17.7348 2.5 18 2.5H22V17.5H18C17.7348 17.5 17.4804 17.6054 17.2929 17.7929C17.1054 17.9804 17 18.2348 17 18.5C17 18.7652 17.1054 19.0196 17.2929 19.2071C17.4804 19.3946 17.7348 19.5 18 19.5H22C22.5304 19.5 23.0391 19.2893 23.4142 18.9142C23.7893 18.5391 24 18.0304 24 17.5V2.5C24 1.96957 23.7893 1.46086 23.4142 1.08579C23.0391 0.710714 22.5304 0.5 22 0.5Z" fill="#222222"/>
<path d="M5.29289 4.79289C5.48043 4.60536 5.73478 4.5 6 4.5C6.26522 4.5 6.51957 4.60536 6.70711 4.79289C6.89464 4.98043 7 5.23478 7 5.5V14.5C7 14.7652 6.89464 15.0196 6.70711 15.2071C6.51957 15.3946 6.26522 15.5 6 15.5C5.73478 15.5 5.48043 15.3946 5.29289 15.2071C5.10536 15.0196 5 14.7652 5 14.5V5.5C5 5.23478 5.10536 4.98043 5.29289 4.79289Z" fill="#222222"/>
<path d="M9 4.5C8.73478 4.5 8.48043 4.60536 8.29289 4.79289C8.10536 4.98043 8 5.23478 8 5.5V14.5C8 14.7652 8.10536 15.0196 8.29289 15.2071C8.48043 15.3946 8.73478 15.5 9 15.5C9.26522 15.5 9.51957 15.3946 9.70711 15.2071C9.89464 15.0196 10 14.7652 10 14.5V5.5C10 5.23478 9.89464 4.98043 9.70711 4.79289C9.51957 4.60536 9.26522 4.5 9 4.5Z" fill="#222222"/>
<path d="M11.2929 4.79289C11.4804 4.60536 11.7348 4.5 12 4.5C12.2652 4.5 12.5196 4.60536 12.7071 4.79289C12.8946 4.98043 13 5.23478 13 5.5V14.5C13 14.7652 12.8946 15.0196 12.7071 15.2071C12.5196 15.3946 12.2652 15.5 12 15.5C11.7348 15.5 11.4804 15.3946 11.2929 15.2071C11.1054 15.0196 11 14.7652 11 14.5V5.5C11 5.23478 11.1054 4.98043 11.2929 4.79289Z" fill="#222222"/>
<path d="M15 4.5C14.7348 4.5 14.4804 4.60536 14.2929 4.79289C14.1054 4.98043 14 5.23478 14 5.5V14.5C14 14.7652 14.1054 15.0196 14.2929 15.2071C14.4804 15.3946 14.7348 15.5 15 15.5C15.2652 15.5 15.5196 15.3946 15.7071 15.2071C15.8946 15.0196 16 14.7652 16 14.5V5.5C16 5.23478 15.8946 4.98043 15.7071 4.79289C15.5196 4.60536 15.2652 4.5 15 4.5Z" fill="#222222"/>
<path d="M18.7071 15.2071C18.5196 15.3946 18.2652 15.5 18 15.5C17.7348 15.5 17.4804 15.3946 17.2929 15.2071C17.1054 15.0196 17 14.7652 17 14.5V5.5C17 5.23478 17.1054 4.98043 17.2929 4.79289C17.4804 4.60536 17.7348 4.5 18 4.5C18.2652 4.5 18.5196 4.60536 18.7071 4.79289C18.8946 4.98043 19 5.23478 19 5.5V14.5C19 14.7652 18.8946 15.0196 18.7071 15.2071Z" fill="#222222"/>
</svg>
