<svg width="24" height="20" viewBox="0 0 24 20" fill="none" xmlns="http://www.w3.org/2000/svg">
<path fill-rule="evenodd" clip-rule="evenodd" d="M16.5858 0.585786C16.9609 0.210713 17.4696 0 18 0H20C20.5304 0 21.0391 0.210713 21.4142 0.585786C21.7893 0.960861 22 1.46957 22 2V18H23C23.5523 18 24 18.4477 24 19C24 19.5523 23.5523 20 23 20H1C0.447715 20 0 19.5523 0 19C0 18.4477 0.447715 18 1 18H5H9V5C9 4.46957 9.21071 3.96086 9.58579 3.58579C9.96086 3.21071 10.4696 3 11 3H13C13.5304 3 14.0391 3.21071 14.4142 3.58579C14.7893 3.96086 15 4.46957 15 5V18H16V2C16 1.46957 16.2107 0.960861 16.5858 0.585786ZM18 2H20V18H18V2ZM13 18V5H11V18H13Z" fill="#222222"/>
<path d="M4 16.9138V17C4 17.5523 4.44772 18 5 18C5.55228 18 6 17.5523 6 17V16.8091C6.41037 16.6567 6.78702 16.4169 7.10196 16.102C7.65271 15.5512 7.97354 14.8117 7.99945 14.0333C7.99982 14.0222 8 14.0111 8 14C8 13.2044 7.68393 12.4413 7.12132 11.8787C6.55871 11.3161 5.79565 11 5 11C4.73478 11 4.48043 10.8946 4.29289 10.7071C4.10925 10.5235 4.00441 10.2757 4.00014 10.0165C4.01312 9.75135 4.12425 9.50025 4.31225 9.31225C4.50075 9.12375 4.75268 9.01253 5.01861 9.00003C5.42747 9.00157 5.68596 9.05358 5.84002 9.10493C5.93475 9.13651 5.98921 9.16743 6.01743 9.18686C6.10494 9.64984 6.51158 10 7 10C7.55228 10 8 9.55228 8 9H7C8 9 8 8.99803 8 8.99803L7.99999 8.99603L7.99997 8.99194L7.99987 8.9834L7.99942 8.96489C7.999 8.95192 7.99833 8.93768 7.9973 8.92225C7.99524 8.89143 7.99176 8.85564 7.98604 8.81561C7.97463 8.73572 7.9541 8.63751 7.91743 8.52752C7.84295 8.30407 7.70427 8.04006 7.45711 7.79289C7.11444 7.45023 6.63496 7.20683 6 7.08622V7C6 6.44772 5.55228 6 5 6C4.44772 6 4 6.44772 4 7V7.19093C3.58963 7.34335 3.21298 7.5831 2.89804 7.89804C2.34729 8.44879 2.02646 9.18829 2.00055 9.96674L3 10H2C2 10.7956 2.31607 11.5587 2.87868 12.1213C3.44129 12.6839 4.20435 13 5 13C5.26522 13 5.51957 13.1054 5.70711 13.2929C5.89075 13.4765 5.99559 13.7243 5.99986 13.9835C5.98688 14.2487 5.87575 14.4998 5.68775 14.6878C5.49925 14.8762 5.24732 14.9875 4.98139 15C4.57252 14.9984 4.31404 14.9464 4.15998 14.8951C4.06525 14.8635 4.01079 14.8326 3.98257 14.8131C3.89506 14.3502 3.48842 14 3 14C2.44772 14 2 14.4477 2 15H3C2 15 2 15.002 2 15.002L2.00001 15.004L2.00003 15.0081L2.00013 15.0166L2.00058 15.0351C2.001 15.0481 2.00167 15.0623 2.0027 15.0777C2.00476 15.1086 2.00824 15.1444 2.01396 15.1844C2.02537 15.2643 2.0459 15.3625 2.08257 15.4725C2.15705 15.6959 2.29573 15.9599 2.54289 16.2071C2.88556 16.5498 3.36504 16.7932 4 16.9138Z" fill="#222222"/>
</svg>
