<svg width="20" height="20" viewBox="0 0 20 20" fill="none" xmlns="http://www.w3.org/2000/svg">
<path d="M12.9134 1.04875C11.9906 0.700933 10.9953 0.51062 9.94733 0.51062C8.8993 0.51062 7.90401 0.700933 6.98123 1.04875C3.13189 2.2825 0.34375 5.84593 0.34375 10.0394C0.34375 13.0516 1.78725 15.7356 4.02831 17.4681C4.71381 18.0653 5.51795 18.5247 6.40119 18.8134C7.50194 19.2466 8.69497 19.4828 9.95392 19.4828C15.2468 19.4828 19.5575 15.2434 19.5575 10.0328C19.5575 5.83937 16.7694 2.27593 12.92 1.04875M1.96522 8.75968C1.96522 4.41531 5.53772 0.897808 9.94733 0.897808C14.3569 0.897808 17.936 4.41531 17.936 8.75312C17.936 9.14687 17.9031 9.54062 17.8503 9.91468C17.0396 8.91718 15.8004 8.28062 14.4031 8.28062C14.324 8.28062 14.2515 8.28062 14.1724 8.28062C13.2034 6.99437 11.7731 6.03624 10.066 5.67531C6.62529 4.94687 3.22416 6.88937 2.08386 10.0722C2.01136 9.63906 1.96522 9.19937 1.96522 8.74656M12.05 17.5731C10.6328 18.4787 8.93885 18.7806 7.28443 18.4328C5.63 18.085 4.21286 17.1203 3.29667 15.7291C2.38047 14.3312 2.07068 12.6709 2.42002 11.0434C3.05279 8.12312 5.68932 6.12156 8.60929 6.12156C9.04431 6.12156 9.49253 6.1675 9.93414 6.25937C11.3776 6.56125 12.6036 7.33562 13.4803 8.37906C11.4897 8.79906 9.98687 10.5447 9.98687 12.625C9.98687 14.5609 11.2854 16.2081 13.0716 16.7659C12.7618 17.0678 12.4191 17.3369 12.05 17.5797M14.4031 16.3787C12.3004 16.3787 10.5933 14.6987 10.5933 12.625C10.5933 10.5512 12.307 8.87125 14.4031 8.87125C16.4991 8.87125 18.2129 10.5512 18.2129 12.625C18.2129 14.6987 16.4991 16.3787 14.4031 16.3787Z" fill="#C1BBB4"/>
</svg>
