<svg width="32" height="32" viewBox="0 0 32 32" fill="none" xmlns="http://www.w3.org/2000/svg">
<g clip-path="url(#clip0_67_13563)">
<path d="M15.9999 30.1825C8.17694 30.1825 1.81348 23.8469 1.81348 16.0581C1.81348 8.26936 8.17694 1.93373 15.9999 1.93373C23.8229 1.93373 30.1864 8.26936 30.1864 16.0581C30.1864 23.8469 23.8229 30.1825 15.9999 30.1825Z" fill="#222222"/>
<path d="M16.0002 2.81532C8.66375 2.81532 2.69922 8.75376 2.69922 16.0581C2.69922 23.3625 8.66375 29.3009 16.0002 29.3009C23.3367 29.3009 29.3012 23.3625 29.3012 16.0581C29.3012 8.75376 23.3367 2.81532 16.0002 2.81532Z" fill="#222222"/>
<path d="M27.8024 14.14C27.8024 20.6306 22.519 25.891 15.9999 25.891C9.48073 25.891 4.20703 20.6306 4.20703 14.14C4.20703 7.6494 9.48073 2.39877 15.9999 2.39877C22.519 2.39877 27.8024 7.65909 27.8024 14.1497" fill="#DDE05B"/>
<path d="M16.0002 26.1912C9.24752 26.1912 3.75977 20.7275 3.75977 14.0043C3.75977 7.28122 9.24752 1.80779 16.0002 1.80779C22.7529 1.80779 28.2406 7.27153 28.2406 13.9947C28.2406 20.7178 22.7529 26.1815 16.0002 26.1815M16.0002 2.68935C9.74376 2.68935 4.6452 7.7656 4.6452 13.9947C4.6452 20.2237 9.73403 25.3 16.0002 25.3C22.2664 25.3 27.3552 20.2334 27.3552 13.9947C27.3552 7.75591 22.2664 2.69903 16.0002 2.69903" fill="#222222"/>
<path d="M23.5991 21.5606C22.4704 26.8209 17.2648 30.1825 11.9717 29.0491C6.68824 27.9253 3.3119 22.7425 4.45032 17.4725C5.57901 12.2122 10.7846 8.85063 16.0778 9.98407C21.3612 11.1078 24.7375 16.2906 23.5991 21.5606Z" fill="#9ED5D6"/>
<path d="M14.0444 29.7175C13.3244 29.7175 12.5947 29.64 11.8746 29.485C9.19886 28.9134 6.91229 27.344 5.42359 25.0578C3.93489 22.7715 3.43866 20.0494 4.01273 17.3853C5.1998 11.8925 10.6486 8.37592 16.1656 9.55779C21.6825 10.7397 25.2146 16.1647 24.0275 21.6575C23.4534 24.3215 21.8771 26.5981 19.5808 28.0803C17.9073 29.1653 15.9904 29.7175 14.0444 29.7175ZM14.025 10.2165C9.71455 10.2165 5.82252 13.21 4.88844 17.579C4.36301 20.0106 4.82033 22.5003 6.18254 24.5831C7.53502 26.6659 9.62698 28.1094 12.0692 28.6325C14.5115 29.1556 17.0121 28.7003 19.1041 27.344C21.196 25.9975 22.6458 23.9147 23.1712 21.4831C24.2513 16.465 21.0306 11.505 15.9904 10.4297C15.3288 10.294 14.6769 10.2262 14.025 10.2262" fill="#222222"/>
<path d="M28.6588 19.9331C28.6588 23.2753 25.9343 25.9781 22.5872 25.9781C19.24 25.9781 16.5156 23.2656 16.5156 19.9331C16.5156 16.6006 19.24 13.8881 22.5872 13.8881C25.9343 13.8881 28.6588 16.6006 28.6588 19.9331Z" fill="#FFE72D"/>
<path d="M22.5777 26.4237C18.9873 26.4237 16.0586 23.5078 16.0586 19.9331C16.0586 16.3584 18.9873 13.4425 22.5777 13.4425C26.1681 13.4425 29.0969 16.3584 29.0969 19.9331C29.0969 23.5078 26.1681 26.4237 22.5777 26.4237ZM22.5777 14.3241C19.4738 14.3241 16.944 16.8428 16.944 19.9331C16.944 23.0234 19.4738 25.5422 22.5777 25.5422C25.6816 25.5422 28.2114 23.0234 28.2114 19.9331C28.2114 16.8428 25.6816 14.3241 22.5777 14.3241Z" fill="#222222"/>
<circle cx="16" cy="16" r="15" stroke="white" stroke-width="2"/>
</g>
<defs>
<clipPath id="clip0_67_13563">
<rect width="32" height="32" rx="16" fill="white"/>
</clipPath>
</defs>
</svg>
