<svg width="1978" height="1978" viewBox="0 0 1978 1978" fill="none" xmlns="http://www.w3.org/2000/svg">
<path d="M888.667 1.46671C700.533 4.40004 506.267 21.2 364 46.8C303.333 57.7334 237.867 72.8 216.667 80.6667C139.733 109.467 92.3999 163.2 72.1333 244.667C67.1999 264.267 55.3333 320.8 51.8666 340.667C50.3999 348.667 48.1333 362.267 46.6666 370.667C34.2666 441.333 19.0666 570 12.7999 656.667C2.53328 797.6 -1.20005 930.267 1.33328 1067.33C2.79995 1150.93 3.59995 1170.13 7.99995 1248C17.5999 1415.47 37.5999 1577.33 63.3333 1695.73C74 1744.93 79.1999 1762.4 90.7999 1786.53C109.067 1824.67 133.067 1852.27 168.4 1875.2C179.2 1882.27 203.2 1893.47 220 1899.33C245.467 1908.27 315.067 1923.87 374 1934C525.867 1960 701.733 1974.53 900 1977.33C983.467 1978.53 1153.33 1977.33 1184 1975.33C1190.27 1974.93 1218.8 1973.33 1247.33 1971.87C1414.13 1963.33 1585.07 1942 1696.53 1915.87C1738.4 1906 1751.07 1902.53 1766.53 1896.4C1801.6 1882.67 1821.73 1870 1844.53 1848C1871.6 1821.73 1887.73 1795.47 1900.4 1756.67C1916.93 1706 1940 1578.13 1952 1470C1954.27 1449.47 1956.4 1431.47 1956.8 1430C1957.2 1427.73 1962.53 1371.07 1964.67 1344C1965.07 1339.2 1966.27 1324.27 1967.33 1310.67C1969.87 1279.07 1974.27 1200.93 1976.13 1151.33C1978.13 1100.8 1978.13 881.867 1976.13 829.333C1967.87 608.933 1946.13 418.667 1911.87 265.6C1904.4 232.267 1898 212.4 1887.47 190.267C1879.2 172.667 1872.67 162.4 1859.6 146.933C1826.27 107.333 1788 85.6 1723.33 69.4667C1588.13 35.7334 1409.6 14 1185.33 4.00004C1155.2 2.66671 989.467 -0.13329 962 0.26671C954.667 0.400043 921.733 0.933377 888.667 1.46671ZM318.667 843.067C333.733 847.733 344 853.733 353.467 863.6C368.8 879.333 375.067 892.933 376.667 914C379.467 950.533 364.267 980 334.667 995.333C319.2 1003.33 308.4 1005.87 290.667 1005.87C274.267 1005.87 262.8 1003.33 248.4 996.667C228.133 987.333 209.467 962.4 206.667 941.067C203.733 918.133 205.467 901.333 212.4 886.4C219.467 871.067 233.867 855.867 247.733 848.933C252.667 846.4 271.733 840.267 276.667 839.6C285.467 838.4 310.133 840.4 318.667 843.067ZM1668 928.667V992H1546.67H1425.33V949.333V906.667L1428.4 906.133C1430 905.733 1444.27 903.333 1460 900.8C1475.73 898.133 1495.33 894.8 1503.33 893.333C1511.47 891.867 1522.8 889.733 1528.67 888.667C1534.53 887.733 1548 885.2 1558.67 883.333C1569.33 881.467 1584.67 878.667 1592.67 877.333C1600.8 875.867 1618.8 872.667 1632.67 870.133C1646.67 867.6 1660.27 865.467 1663.07 865.467L1668 865.333V928.667ZM637.733 928.267C638.267 939.333 638.667 972.933 638.667 1002.93V1057.33H700.667H762.667V1113.33V1169.33H700.667H638.667V1273.6C638.667 1387.87 639.333 1403.47 644.4 1414.93C650.4 1428.4 661.6 1438.4 677.333 1444.13C685.333 1447.07 688 1447.33 710 1447.2C723.733 1447.2 736 1446.53 738.667 1445.73C741.2 1444.93 746.133 1443.87 749.733 1443.47L756 1442.67V1498V1553.33L752.667 1554.67C745.6 1557.33 710.667 1561.47 686.133 1562.53C623.6 1565.2 584.8 1555.47 548.667 1528.4C529.2 1513.73 510.4 1485.47 502.267 1458.67C492.4 1426.27 493.067 1437.33 492.4 1296.27L491.733 1169.33H455.2H418.667L418.933 1113.6L419.333 1058L455.733 1057.6L492 1057.33V994.933V932.667L502.4 930.8C508 929.867 516.933 928.267 522 927.333C532.4 925.333 580.667 916.933 620 910C625.467 909.067 631.6 908.267 633.467 908.133L636.933 908L637.733 928.267ZM1062 1046.8C1090.8 1049.07 1121.47 1057.33 1145.73 1069.47C1168.93 1081.2 1185.2 1093.87 1200.8 1112.67C1219.6 1135.2 1230.4 1157.73 1240.27 1194.67L1244.4 1210L1245.33 1304.67C1246 1356.67 1246.53 1434 1246.53 1476.27L1246.67 1553.33H1178H1109.33V1537.6C1109.33 1529.07 1108.93 1518 1108.53 1513.07L1107.6 1504.13L1101.73 1511.33C1090.4 1525.07 1068.93 1542.13 1052.27 1550.53C1049.07 1552.13 1040 1555.6 1032.27 1558.13C1014.53 1564 992.933 1566 962 1564.67C931.6 1563.47 913.867 1559.07 888 1546.4C868.933 1537.07 868.4 1536.67 851.733 1520.27C842.4 1511.07 833.467 1501.47 832 1498.8C817.333 1472.27 812.933 1459.2 809.867 1431.87C807.867 1414 807.867 1411.2 809.867 1394.93C813.2 1367.73 821.333 1345.07 833.733 1328.13C840.4 1319.07 849.733 1307.47 850.8 1306.93C851.2 1306.8 853.6 1304.67 856.133 1302.4C874.133 1286 906 1268.27 933.333 1259.33C969.867 1247.6 1015.73 1241.2 1063.73 1241.47C1078.93 1241.47 1094.8 1242 1099.07 1242.53L1106.67 1243.47V1236.53C1106.67 1228.93 1102.13 1213.6 1096.93 1203.33C1090 1189.47 1073.33 1174.93 1058.8 1169.87C1055.47 1168.8 1050.93 1166.93 1048.67 1165.73C1042.13 1162.4 1020 1160.93 987.333 1161.73C962.533 1162.27 953.2 1163.07 938.667 1165.87C914 1170.4 883.467 1178.53 858 1187.33C846.267 1191.33 836.133 1194.8 835.333 1195.07C833.733 1195.33 832.667 1102.53 834 1087.07L834.933 1077.6L855.733 1070.8C906.4 1054.4 946.933 1047.6 1010 1044.93C1021.47 1044.4 1039.2 1045.07 1062 1046.8ZM364 1305.33V1553.33H290.667H217.333V1305.33V1057.33H290.667H364V1305.33ZM1464.4 1219.6C1464.93 1369.33 1465.07 1382.67 1467.33 1390.67C1477.87 1429.73 1506.27 1450.67 1544.13 1447.33C1574.53 1444.8 1596.53 1426.67 1608.13 1394.53C1611.73 1384.67 1612.4 1380.8 1613.33 1362C1614 1350.27 1614.53 1276.93 1614.53 1198.93L1614.67 1057.33H1688H1761.33V1305.33V1553.33H1692H1622.67L1621.33 1549.87C1620.53 1548 1620 1539.47 1620 1530.8C1620 1522.13 1619.6 1512.4 1619.2 1509.2L1618.4 1503.33L1600.13 1521.47C1582.8 1538.53 1581.2 1539.87 1565.87 1547.6C1551.2 1555.2 1538.8 1559.73 1524.67 1562.67C1515.07 1564.8 1476 1565.73 1460.27 1564.13C1437.2 1562 1410.93 1552.8 1392.67 1540.67C1373.07 1527.73 1349.87 1501.2 1338.93 1479.2C1333.2 1467.87 1325.6 1444.4 1322.4 1428.67C1318.53 1409.87 1317.6 1367.07 1317.47 1197.6L1317.33 1057.33H1390.53H1463.73L1464.4 1219.6Z" fill="#FF8800"/>
<path d="M1030 1334.27C1018.53 1335.87 998.133 1342.13 987.067 1347.6C965.867 1357.87 957.067 1367.87 951.867 1388C949.2 1397.87 949.067 1400 950.4 1409.6C953.333 1430.27 963.333 1444.53 980.267 1452.67C993.867 1459.2 1001.33 1460.4 1025.47 1459.73L1046.53 1459.2L1060.27 1452.4C1077.33 1443.73 1084.8 1437.47 1092.8 1424.53C1104.8 1405.33 1105.73 1401.07 1106.53 1365.6C1106.93 1348.4 1107.07 1334.13 1106.8 1333.87C1106 1333.2 1035.33 1333.6 1030 1334.27Z" fill="#FF8800"/>
</svg>
