<svg width="26" height="24" viewBox="0 0 26 24" fill="none" xmlns="http://www.w3.org/2000/svg">
<path d="M22.76 8.10612C23.5817 8.31498 24.2629 8.85468 24.6585 9.58571C24.979 10.1782 25.0927 10.8612 24.9747 11.5314L24.9267 11.7542L22.4146 21.6135C22.0197 23.1614 20.4867 24.1187 18.9387 23.8179L18.7667 23.7793L5.20186 20.3226C4.28647 20.0905 3.54919 19.4489 3.18378 18.5978C2.96589 18.0903 3.20066 17.5023 3.70815 17.2844C4.17938 17.0821 4.72007 17.2701 4.96936 17.7043L5.02155 17.8088C5.12883 18.0586 5.32893 18.2523 5.58268 18.3489L5.69461 18.3843L19.2609 21.8413C19.7573 21.968 20.2624 21.6981 20.4413 21.2307L20.4766 21.1194L22.9887 11.2603C23.0519 11.0122 23.0186 10.7577 22.8994 10.5374C22.7859 10.3276 22.6042 10.1666 22.3818 10.0809L22.2673 10.0445C21.732 9.9084 21.4084 9.36418 21.5445 8.82892C21.6806 8.29366 22.2248 7.97005 22.76 8.10612ZM17.9805 0.126892C19.6368 0.126892 20.9805 1.47061 20.9805 3.12689V13.3019C20.9805 14.9582 19.6368 16.3019 17.9805 16.3019H3.98047C2.32418 16.3019 0.980469 14.9582 0.980469 13.3019V3.12689C0.980469 1.47061 2.32418 0.126892 3.98047 0.126892H17.9805ZM18.9805 9.20289H2.98047V13.3019C2.98047 13.8142 3.367 14.2373 3.86395 14.2952L3.98047 14.3019H17.9805C18.5322 14.3019 18.9805 13.8536 18.9805 13.3019V9.20289ZM15.4805 10.2033C16.3088 10.2033 16.9805 10.875 16.9805 11.7033C16.9805 12.5316 16.3088 13.2033 15.4805 13.2033H14.4805C13.6522 13.2033 12.9805 12.5316 12.9805 11.7033C12.9805 10.875 13.6522 10.2033 14.4805 10.2033H15.4805ZM18.9805 6.20249H2.98047V7.20249H18.9805V6.20249ZM17.9805 2.12689H3.98047C3.42875 2.12689 2.98047 2.57518 2.98047 3.12689V4.20289H18.9805V3.12689C18.9805 2.61458 18.5939 2.19146 18.097 2.13363L17.9805 2.12689Z" fill="#222222"/>
</svg>
