<svg width="24" height="24" viewBox="0 0 24 24" fill="none" xmlns="http://www.w3.org/2000/svg">
<path fill-rule="evenodd" clip-rule="evenodd" d="M3 0H12C12.5523 0 13 0.44772 13 1C13 1.55228 12.5523 2 12 2H3V22H21V15C21 14.4477 21.4477 14 22 14C22.5523 14 23 14.4477 23 15V22C23 23.1046 22.1046 24 21 24H3C1.89543 24 1 23.1046 1 22V2C1 0.89543 1.89543 0 3 0ZM6 12C5.44772 12 5 12.4477 5 13C5 13.5523 5.44772 14 6 14H12C12.5523 14 13 13.5523 13 13C13 12.4477 12.5523 12 12 12H6ZM5 18C5 17.4477 5.44772 17 6 17H16C16.5523 17 17 17.4477 17 18C17 18.5523 16.5523 19 16 19H6C5.44771 19 5 18.5523 5 18ZM17.7145 13.2824C17.7145 13.4638 17.7947 13.6332 17.942 13.7653C18.104 13.9186 18.32 14 18.5687 14C18.8158 14 19.0318 13.9186 19.1856 13.7733C19.3411 13.6359 19.4229 13.4665 19.4229 13.2824V12.4755C20.4898 12.3648 21.3391 12.062 21.9511 11.5779C22.6465 11.027 23 10.2668 23 9.3198C23 8.5822 22.7431 7.9593 22.2358 7.4698C21.7482 7.0017 21.1509 6.6469 20.4604 6.4161C19.8205 6.2014 19.1725 6.004 18.5344 5.83194C17.9502 5.67189 17.4478 5.45715 17.0436 5.19306C16.6984 4.96766 16.5298 4.69156 16.5298 4.35145C16.5298 3.98199 16.6853 3.68456 17.0044 3.44315C17.3316 3.19773 17.87 3.07236 18.6015 3.07236C19.5947 3.07236 20.3965 3.41247 21.0445 4.1047C21.398 4.49683 22.0885 4.54485 22.5042 4.18873C22.6825 4.03401 22.7775 3.84061 22.7775 3.62721C22.7775 3.46582 22.7202 3.3071 22.6089 3.16439C21.8758 2.24275 20.804 1.6959 19.4229 1.53851V0.71424C19.4229 0.53285 19.3411 0.36346 19.1922 0.22874C18.8633 -0.0780198 18.2693 -0.0740201 17.9453 0.22741C17.7947 0.36612 17.7145 0.53418 17.7145 0.71424V1.53985C16.7556 1.65322 15.9996 1.94665 15.4613 2.41614C14.8558 2.94565 14.5482 3.59787 14.5482 4.35145C14.5482 4.95699 14.7331 5.48783 15.0964 5.92931C15.4596 6.3628 15.9195 6.6869 16.466 6.8883C16.952 7.0684 17.4789 7.2457 18.0467 7.4218C18.5785 7.5866 19.0779 7.7357 19.5362 7.8726L19.6078 7.894C20.0284 8.022 20.3671 8.2061 20.642 8.4608C20.8956 8.6956 21.0184 8.977 21.0184 9.3198C21.0184 9.8586 20.8187 10.2494 20.4096 10.5162C19.9793 10.7963 19.3313 10.9376 18.4836 10.9376C17.2596 10.9376 16.3793 10.5335 15.7885 9.6986C15.4564 9.2357 14.6725 9.1731 14.2585 9.5492C14.09 9.7039 14 9.8946 14 10.1027C14 10.2281 14.0393 10.3615 14.1276 10.5188C14.4549 11.0537 14.9769 11.5112 15.674 11.882C16.2696 12.2007 16.9553 12.4008 17.7145 12.4782V13.2824Z" fill="#222222"/>
</svg>
