<svg width="24" height="24" viewBox="0 0 24 24" fill="none" xmlns="http://www.w3.org/2000/svg">
<path d="M8.39023 11.4478C8.39523 11.3878 8.39523 11.3278 8.39023 11.2678C8.13023 10.5668 7.99423 9.82584 7.99023 9.07784C7.99223 5.77283 10.4722 2.99584 13.7562 2.62284C17.0392 2.24884 20.0802 4.39984 20.8242 7.61884C21.5672 10.8398 19.7752 14.1048 16.6602 15.2078C16.6002 15.2078 16.5702 15.2678 16.5202 15.2878L14.9902 15.4578C14.9042 14.7098 14.5132 14.0298 13.9102 13.5778H14.6402C15.7442 13.5768 16.7032 12.8168 16.9542 11.7418C17.2072 10.6678 16.6882 9.56084 15.7002 9.06784L14.1692 8.29784C14.0772 8.25484 14.0072 8.17684 13.9732 8.08084C13.9402 7.98484 13.9462 7.87984 13.9902 7.78784C14.0582 7.65784 14.1932 7.57584 14.3402 7.57784H14.9192C15.0212 7.57784 15.1182 7.61784 15.1902 7.68784C15.5862 8.02784 16.1782 8.00484 16.5472 7.63484C16.9162 7.26584 16.9402 6.67484 16.6002 6.27784C16.2962 5.96984 15.9112 5.85484 15.4902 5.75784C15.4902 5.20584 15.0188 4.78064 14.4668 4.78064C13.9148 4.78064 13.4902 5.20584 13.4902 5.75784C12.6072 6.08884 12.0052 6.91184 11.9602 7.85384C11.9142 8.79584 12.4332 9.67384 13.2802 10.0878L14.8102 10.8578C14.9002 10.9028 14.9682 10.9818 15.0002 11.0778C15.0332 11.1738 15.0252 11.2778 14.9802 11.3678C14.9132 11.4948 14.7842 11.5758 14.6402 11.5778H14.0602C13.9592 11.5778 13.8622 11.5378 13.7892 11.4678C13.4122 11.1488 12.8592 11.1528 12.4862 11.4768C12.1142 11.8018 12.0352 12.3508 12.3002 12.7678L10.3002 11.9078C9.69223 11.6518 9.04723 11.4898 8.39023 11.4278V11.4478ZM23.1102 15.4478C22.5462 14.9478 21.7982 14.7088 21.0502 14.7878H20.7402C23.3072 11.9868 23.7002 7.81984 21.7012 4.58784C19.7032 1.35584 15.8002 -0.155164 12.1472 0.889836C8.49423 1.93384 5.97923 5.27783 5.99023 9.07784C5.99023 9.92484 6.11423 10.7668 6.36023 11.5778C5.45423 11.7628 4.59923 12.1378 3.85023 12.6778C3.07423 13.2608 2.13023 13.5758 1.16023 13.5778H0.990234C0.438234 13.5778 -0.00976562 14.0258 -0.00976562 14.5778C-0.00976562 15.1298 0.438234 15.5778 0.990234 15.5778H1.16023C2.56323 15.5768 3.92823 15.1208 5.05023 14.2778C6.33523 13.3188 8.03523 13.1168 9.51023 13.7478L12.5102 15.0378C12.8072 15.1718 12.9932 15.4728 12.9802 15.7978C12.9772 16.0428 12.8642 16.2728 12.6712 16.4248C12.4792 16.5758 12.2292 16.6328 11.9902 16.5778L8.23023 15.5778C7.87223 15.4918 7.49623 15.6038 7.24423 15.8698C6.99123 16.1368 6.90023 16.5178 7.00323 16.8698C7.10823 17.2218 7.39323 17.4918 7.74923 17.5778L11.5392 18.5778C11.7592 18.6298 11.9842 18.6558 12.2092 18.6578C13.0372 18.6638 13.8242 18.2968 14.3502 17.6578L21.2702 16.8878C21.4532 16.8678 21.6342 16.9268 21.7722 17.0488C21.9092 17.1698 21.9882 17.3438 21.9902 17.5278C21.9912 17.8038 21.8192 18.0518 21.5602 18.1478L12.7002 21.3678C12.1842 21.5538 11.6272 21.5958 11.0902 21.4878L2.19023 19.5778H0.990234C0.438234 19.5778 -0.00976562 20.0258 -0.00976562 20.5778C-0.00976562 21.1298 0.438234 21.5778 0.990234 21.5778H1.89023L10.7002 23.3378C11.0292 23.4078 11.3642 23.4418 11.7002 23.4378C12.2802 23.4368 12.8552 23.3358 13.4002 23.1378L22.2702 19.9078C23.1432 19.5888 23.7852 18.8338 23.9612 17.9208C24.1372 17.0078 23.8222 16.0698 23.1302 15.4478H23.1102Z" fill="#222222"/>
</svg>
