<svg width="24" height="24" viewBox="0 0 24 24" fill="none" xmlns="http://www.w3.org/2000/svg">
<path d="M21 6.51238H17.16C17.6276 6.29852 18.0355 5.97312 18.3479 5.56475C18.6603 5.15638 18.8677 4.67754 18.9517 4.17029C19.0358 3.66305 18.994 3.14292 18.8301 2.65559C18.6661 2.16827 18.385 1.72866 18.0114 1.37539C17.6378 1.02212 17.1832 0.76599 16.6875 0.629507C16.1918 0.493025 15.6701 0.480362 15.1684 0.592633C14.6666 0.704903 14.2001 0.938671 13.8098 1.2734C13.4195 1.60813 13.1174 2.03358 12.93 2.51238L12 4.82238L11.07 2.51238C10.885 2.02867 10.5836 1.59805 10.1925 1.25861C9.80133 0.919184 9.33255 0.681422 8.82762 0.566379C8.32268 0.451335 7.79717 0.462558 7.29761 0.599055C6.79805 0.735551 6.33984 0.993111 5.96356 1.34893C5.58728 1.70475 5.30454 2.14785 5.14035 2.63901C4.97617 3.13017 4.93561 3.65424 5.02228 4.16481C5.10894 4.67538 5.32015 5.15671 5.63721 5.56618C5.95426 5.97566 6.36739 6.30065 6.84 6.51238H3C2.20435 6.51238 1.44129 6.82845 0.87868 7.39106C0.31607 7.95366 0 8.71673 0 9.51238V10.5124C0.00173951 11.1313 0.194878 11.7346 0.552938 12.2394C0.910998 12.7443 1.41645 13.1261 2 13.3324V20.5124C2 21.308 2.31607 22.0711 2.87868 22.6337C3.44129 23.1963 4.20435 23.5124 5 23.5124H19C19.7956 23.5124 20.5587 23.1963 21.1213 22.6337C21.6839 22.0711 22 21.308 22 20.5124V13.3324C22.5835 13.1261 23.089 12.7443 23.4471 12.2394C23.8051 11.7346 23.9983 11.1313 24 10.5124V9.51238C24 8.71673 23.6839 7.95366 23.1213 7.39106C22.5587 6.82845 21.7956 6.51238 21 6.51238ZM14 8.51238V11.5124H10V8.51238H14ZM14.79 3.23238C14.873 3.01916 15.0188 2.83616 15.2081 2.7076C15.3974 2.57904 15.6212 2.51096 15.85 2.51238C16.0014 2.51104 16.1515 2.53988 16.2917 2.5972C16.4318 2.65452 16.5591 2.73918 16.6661 2.84623C16.7732 2.95328 16.8579 3.08059 16.9152 3.22072C16.9725 3.36084 17.0013 3.51098 17 3.66238C17.0014 3.89118 16.9333 4.11502 16.8048 4.3043C16.6762 4.49357 16.4932 4.63936 16.28 4.72238L13.79 5.72238L14.79 3.23238ZM8.15 2.51238C8.3788 2.51096 8.60265 2.57904 8.79192 2.7076C8.9812 2.83616 9.12699 3.01916 9.21 3.23238L10.21 5.71238L7.72 4.71238C7.50837 4.62998 7.32649 4.48572 7.19805 4.29843C7.06962 4.11113 7.0006 3.88948 7 3.66238C6.99867 3.51098 7.0275 3.36084 7.08482 3.22072C7.14214 3.08059 7.2268 2.95328 7.33385 2.84623C7.44091 2.73918 7.56821 2.65452 7.70834 2.5972C7.84847 2.53988 7.99861 2.51104 8.15 2.51238V2.51238ZM2 9.51238C2 9.24716 2.10536 8.99281 2.29289 8.80527C2.48043 8.61773 2.73478 8.51238 3 8.51238H8V11.5124H3C2.73478 11.5124 2.48043 11.407 2.29289 11.2195C2.10536 11.0319 2 10.7776 2 10.5124V9.51238ZM5 21.5124C4.73478 21.5124 4.48043 21.407 4.29289 21.2195C4.10536 21.0319 4 20.7776 4 20.5124V13.5124H8V21.5124H5ZM10 21.5124V13.5124H14V21.5124H10ZM20 20.5124C20 20.7776 19.8946 21.0319 19.7071 21.2195C19.5196 21.407 19.2652 21.5124 19 21.5124H16V13.5124H20V20.5124ZM22 10.5124C22 10.7776 21.8946 11.0319 21.7071 11.2195C21.5196 11.407 21.2652 11.5124 21 11.5124H16V8.51238H21C21.2652 8.51238 21.5196 8.61773 21.7071 8.80527C21.8946 8.99281 22 9.24716 22 9.51238V10.5124Z" fill="#222222"/>
</svg>
