<svg width="24" height="24" viewBox="0 0 24 24" fill="none" xmlns="http://www.w3.org/2000/svg">
<path d="M3.5 0C1.84315 0 0.5 1.34314 0.5 3V21C0.5 22.6569 1.84315 24 3.5 24H11.5C13.433 24 15 22.433 15 20.5C15 19.9477 14.5523 19.5 14 19.5C13.4477 19.5 13 19.9477 13 20.5C13 21.3284 12.3284 22 11.5 22H3.5C2.94772 22 2.5 21.5523 2.5 21V3C2.5 2.44772 2.94771 2 3.5 2H12.5C12.7761 2 13 2.22386 13 2.5C13 3.05228 13.4477 3.5 14 3.5C14.5523 3.5 15 3.05228 15 2.5C15 1.11929 13.8807 0 12.5 0H3.5Z" fill="#222222"/>
<path d="M5.5 5C5.5 4.44772 5.94772 4 6.5 4H9.5C10.0523 4 10.5 4.44772 10.5 5C10.5 5.55228 10.0523 6 9.5 6H6.5C5.94772 6 5.5 5.55228 5.5 5Z" fill="#222222"/>
<path d="M9.5 18.5C9.5 19.3284 8.82843 20 8 20C7.17157 20 6.5 19.3284 6.5 18.5C6.5 17.6716 7.17157 17 8 17C8.82843 17 9.5 17.6716 9.5 18.5Z" fill="#222222"/>
<path fill-rule="evenodd" clip-rule="evenodd" d="M10.5 10C10.5 8.89543 11.3954 8 12.5 8H12.6158C12.0582 7.1428 11.9908 6.01062 12.5372 5.06436C13.3121 3.72208 15.0285 3.26218 16.3708 4.03715C16.7121 4.23421 16.9719 4.53281 17.1651 4.8145C17.3582 4.53281 17.618 4.23421 17.9594 4.03715C19.3017 3.26218 21.018 3.72208 21.793 5.06436C22.3416 6.01454 22.2714 7.15217 21.7074 8.01062C22.7145 8.11438 23.5 8.96546 23.5 10V17C23.5 18.1046 22.6046 19 21.5 19H12.5C11.3954 19 10.5 18.1046 10.5 17V10ZM12.5 14.5V17H16V14.5H12.5ZM18 17H21.5V14.5H18V17ZM21.5 12.5V10H18V12.5H21.5ZM16 10V12.5H12.5V10H16ZM18.2798 7.09272C18.3445 7.1047 18.4106 7.11629 18.4777 7.12721C18.8005 7.17979 19.1172 7.21256 19.3827 7.20969C19.632 7.20699 19.7414 7.173 19.7627 7.16636C19.7667 7.16511 19.7676 7.16483 19.7658 7.16591C20.1515 6.94323 20.2836 6.45005 20.0609 6.06436C19.8382 5.67867 19.3451 5.54652 18.9594 5.7692C18.9612 5.76812 18.9606 5.76876 18.9575 5.7716C18.9411 5.78677 18.8569 5.86451 18.7299 6.07907C18.5947 6.30752 18.4647 6.59825 18.3488 6.90408C18.3248 6.96761 18.3017 7.03069 18.2798 7.09272ZM15.8525 7.12721C15.9195 7.11629 15.9857 7.1047 16.0504 7.09272C16.0284 7.03069 16.0054 6.96761 15.9813 6.90408C15.8654 6.59825 15.7354 6.30752 15.6002 6.07907C15.4732 5.86451 15.3891 5.78678 15.3727 5.77161C15.3696 5.76876 15.3689 5.76812 15.3708 5.7692C14.9851 5.54652 14.4919 5.67867 14.2692 6.06436C14.0465 6.45005 14.1787 6.94323 14.5644 7.16591C14.5625 7.16483 14.5634 7.16511 14.5674 7.16636C14.5888 7.173 14.6981 7.20699 14.9475 7.20969C15.2129 7.21256 15.5297 7.17979 15.8525 7.12721Z" fill="#222222"/>
</svg>
