<svg width="288" height="216" viewBox="0 0 288 216" fill="none" xmlns="http://www.w3.org/2000/svg">
<g clip-path="url(#clip0_65_23883)">
<path d="M144.052 20.423L6.54688 107.622L143.947 197.248L281.453 108.372L144.052 20.423Z" fill="#9ED5D6"/>
<path d="M65.96 128.298L110.668 156.175L102.181 170.682L58.2685 142.482L65.96 128.298Z" fill="#9F5526"/>
<rect x="167.285" y="65.1599" width="19.956" height="13.6106" rx="6.80531" transform="rotate(10.9275 167.285 65.1599)" fill="#9F5526"/>
<rect x="168.742" y="85.9417" width="19.956" height="13.6106" rx="6.80531" transform="rotate(21.3857 168.742 85.9417)" fill="#9F5526"/>
<path d="M83.497 84.8469L64.9062 130.732L102.07 170.676L115.92 159.601L116.22 70.4368L83.497 84.8469Z" fill="#9F5526"/>
<rect x="175.863" y="173.534" width="56.3833" height="13.6106" rx="6.80531" transform="rotate(-167.364 175.863 173.534)" fill="#9F5526"/>
<path d="M150.154 100.102L181.028 101.83L221.112 147.814L162.631 185.573C160.601 177.57 158.64 171.066 154.341 168.916C129.82 156.656 150.154 100.102 150.154 100.102Z" fill="#9F5526"/>
<path fill-rule="evenodd" clip-rule="evenodd" d="M173.417 101.918C173.216 102.328 173.384 102.823 173.794 103.025C175.97 104.095 178.398 104.547 180.813 104.332L181.237 104.295C181.691 104.254 182.027 103.853 181.987 103.398C181.946 102.943 181.545 102.608 181.09 102.648L180.666 102.686C178.553 102.874 176.428 102.478 174.524 101.541C174.114 101.34 173.619 101.509 173.417 101.918Z" fill="#1E0300"/>
<g clip-path="url(#clip1_65_23883)">
<path d="M103.059 29C103.059 24.0294 107.088 20 112.059 20H164.742C169.712 20 173.742 24.0294 173.742 29V150.18C173.742 155.151 169.712 159.18 164.742 159.18H112.059C107.088 159.18 103.059 155.151 103.059 150.18V29Z" fill="#3C552D"/>
<rect width="14.0562" height="3.08304" rx="1.54152" transform="matrix(1 0 0.00425843 -0.999991 133.184 26.5273)" fill="#1D2D2A"/>
<circle cx="129.728" cy="24.9355" r="1.45236" fill="#1D2D2A"/>
<g clip-path="url(#clip2_65_23883)">
<path d="M105.867 32.8687C105.867 27.8981 109.897 23.8687 114.867 23.8687H118.732C120.847 23.8687 122.813 24.9607 123.93 26.7568C125.048 28.553 127.014 29.645 129.129 29.645H147.574C149.705 29.645 151.688 28.5555 152.831 26.7568C153.974 24.9582 155.957 23.8687 158.088 23.8687H161.933C166.903 23.8687 170.933 27.8981 170.933 32.8687V146.312C170.933 151.282 166.903 155.312 161.933 155.312H114.867C109.897 155.312 105.867 151.282 105.867 146.312V32.8687Z" fill="white"/>
<circle cx="124.997" cy="67.9017" r="10.9806" fill="#F4E754"/>
<path d="M140.473 62.1306H159.311" stroke="#1E0300" stroke-width="1.5" stroke-linecap="round"/>
<path d="M140.473 67.7771H159.311" stroke="#9D9D9D" stroke-width="1.5" stroke-linecap="round"/>
<path d="M140.473 73.4236H159.311" stroke="#9D9D9D" stroke-width="1.5" stroke-linecap="round"/>
<path d="M117.45 88.4675H136.288" stroke="#1E0300" stroke-width="1.5" stroke-linecap="round"/>
<path d="M117.45 107.566H132.109" stroke="#1E0300" stroke-width="1.5" stroke-linecap="round"/>
<path d="M117.45 113.023L127.198 113.023" stroke="#9D9D9D" stroke-width="1.5" stroke-linecap="round"/>
<path d="M143.279 113.023L160.848 113.023" stroke="#9D9D9D" stroke-width="1.5" stroke-linecap="round"/>
<path d="M143.279 107.566H157.938" stroke="#1E0300" stroke-width="1.5" stroke-linecap="round"/>
<path d="M117.45 94.6521H160.848" stroke="#9D9D9D" stroke-width="1.5" stroke-linecap="round"/>
</g>
<rect x="117.55" y="125.578" width="41.9856" height="16.0404" rx="8.0202" fill="#197898"/>
</g>
<path d="M103.815 61.3447L103.261 120.144L70.0038 118.137L84.1549 74.2991L103.815 61.3447Z" fill="#9F5526"/>
<rect width="43.4909" height="17.6166" rx="8.80828" transform="matrix(-0.393888 0.919158 -0.962426 -0.271546 115.366 45.5608)" fill="#9F5526"/>
<path fill-rule="evenodd" clip-rule="evenodd" d="M95.4195 54.5692C96.6808 54.2873 98.2058 53.5822 99.5479 52.2878C100.859 51.0231 101.602 49.3538 101.814 47.7982C102.031 46.2086 101.679 44.9105 101.046 44.254C100.729 43.9254 100.739 43.4021 101.067 43.0852C101.396 42.7683 101.919 42.7778 102.236 43.1064C103.359 44.2705 103.705 46.1681 103.452 48.0217C103.194 49.9094 102.299 51.9311 100.696 53.4778C99.1226 54.9948 97.3204 55.8383 95.7801 56.1826C95.0117 56.3544 94.2859 56.407 93.6695 56.3433C93.0914 56.2836 92.4569 56.1052 92.0483 55.6636C91.7383 55.3285 91.7586 54.8055 92.0937 54.4955C92.4288 54.1854 92.9518 54.2057 93.2618 54.5408C93.2617 54.5407 93.262 54.5409 93.2627 54.5414C93.2752 54.5505 93.421 54.6556 93.8393 54.6988C94.2436 54.7406 94.7871 54.7106 95.4195 54.5692Z" fill="#1E0300"/>
<rect x="140.48" y="122.995" width="42.1497" height="20.4117" rx="10.2058" transform="rotate(12.1153 140.48 122.995)" fill="#9F5526"/>
<rect x="166.479" y="124.657" width="43.5789" height="22.7529" rx="11.3764" transform="rotate(38.2187 166.479 124.657)" fill="#9F5526"/>
<path fill-rule="evenodd" clip-rule="evenodd" d="M170.421 156.692C170.104 156.363 169.581 156.354 169.253 156.671C168.924 156.989 168.915 157.512 169.232 157.84L169.795 157.297C169.232 157.84 169.233 157.84 169.232 157.84L169.232 157.839C169.232 157.84 169.231 157.839 169.232 157.839L169.232 157.84L169.238 157.847C169.245 157.853 169.256 157.865 169.271 157.882C169.301 157.914 169.348 157.967 169.411 158.039C169.537 158.184 169.725 158.409 169.967 158.719C170.451 159.34 171.147 160.304 171.977 161.653C173.637 164.352 175.834 168.596 177.936 174.732C178.084 175.164 178.554 175.394 178.986 175.246C179.418 175.099 179.648 174.628 179.5 174.197C177.359 167.946 175.11 163.591 173.385 160.787C172.523 159.385 171.792 158.372 171.272 157.703C171.011 157.369 170.804 157.121 170.659 156.955C170.586 156.871 170.529 156.808 170.49 156.764C170.47 156.743 170.454 156.726 170.442 156.714L170.429 156.699L170.424 156.694L170.423 156.693L170.421 156.692C170.421 156.691 170.421 156.692 169.827 157.266L170.421 156.692Z" fill="#1E0300"/>
<path fill-rule="evenodd" clip-rule="evenodd" d="M162.345 127.746C162.801 127.727 163.187 128.08 163.206 128.537C163.249 129.529 163.075 130.518 162.655 131.449C161.73 133.494 159.826 134.799 157.597 135.311C155.369 135.824 152.769 135.562 150.307 134.449C146.541 132.746 144.004 129.445 143.853 126.127C143.833 125.671 144.185 125.284 144.642 125.263C145.098 125.243 145.484 125.596 145.505 126.052C145.621 128.596 147.636 131.427 150.989 132.942C153.151 133.92 155.382 134.124 157.227 133.7C159.071 133.276 160.482 132.242 161.148 130.768C161.456 130.087 161.587 129.358 161.554 128.608C161.535 128.151 161.889 127.766 162.345 127.746Z" fill="#1E0300"/>
<path fill-rule="evenodd" clip-rule="evenodd" d="M174.874 130.135C174.673 130.545 174.841 131.04 175.251 131.242L178.406 132.794L197.144 139.85C197.572 140.011 198.048 139.795 198.209 139.367C198.37 138.94 198.154 138.463 197.727 138.303L179.063 131.275L175.981 129.759C175.571 129.557 175.076 129.726 174.874 130.135Z" fill="#1E0300"/>
</g>
<defs>
<clipPath id="clip0_65_23883">
<rect width="288" height="216" fill="white"/>
</clipPath>
<clipPath id="clip1_65_23883">
<rect width="70.6831" height="139.18" fill="white" transform="translate(103.059 20)"/>
</clipPath>
<clipPath id="clip2_65_23883">
<rect width="65.0655" height="131.443" fill="white" transform="translate(105.867 23.8687)"/>
</clipPath>
</defs>
</svg>
