<svg width="288" height="216" viewBox="0 0 288 216" fill="none" xmlns="http://www.w3.org/2000/svg">
<g clip-path="url(#clip0_65_23795)">
<g clip-path="url(#clip1_65_23795)">
<circle cx="137.174" cy="112" r="90" fill="#9ED5D6"/>
<ellipse cx="118.042" cy="46.9037" rx="33.8217" ry="33.8217" transform="rotate(180 118.042 46.9037)" fill="#1E0300"/>
<ellipse cx="100.26" cy="62.6132" rx="34.2255" ry="36.1092" transform="rotate(180 100.26 62.6132)" fill="#1E0300"/>
<ellipse cx="105.357" cy="89.6627" rx="22.6119" ry="22.6119" transform="rotate(180 105.357 89.6627)" fill="#1E0300"/>
<ellipse cx="69.6154" cy="77.0016" rx="25.4559" ry="25.4559" transform="rotate(180 69.6154 77.0016)" fill="#1E0300"/>
<ellipse cx="51.6342" cy="108.141" rx="25.7164" ry="25.7163" transform="rotate(180 51.6342 108.141)" fill="#1E0300"/>
<ellipse cx="44.727" cy="140.2" rx="25.19" ry="25.19" transform="rotate(180 44.727 140.2)" fill="#1E0300"/>
<ellipse cx="119.807" cy="76.9973" rx="21.9451" ry="21.9451" transform="rotate(180 119.807 76.9973)" fill="#1E0300"/>
<path d="M44.6481 124.613C45.2222 105.461 60.9284 90.1115 80.2197 90.1115V172.109C60.8371 172.109 45.0735 151.429 44.641 125.699H44.6318C44.6318 125.544 44.6328 125.389 44.6348 125.234C44.6328 125.027 44.6318 124.821 44.6318 124.613H44.6481Z" fill="#FFE72D"/>
<path d="M78.4043 90.0537H133.153V90.1613C160.687 91.1522 182.565 106.684 182.565 125.699L182.44 186.606L78.4043 180.46V90.0537Z" fill="#FFE72D"/>
<path d="M150.418 184.243L179.057 108.192L198.809 105.493L195.471 171.839C195.014 180.913 188.499 188.538 179.609 190.407L164.916 193.494L150.418 184.243Z" fill="#9F5526"/>
<path d="M184.252 67.0382C197.451 68.4949 203.395 77.5459 201.943 90.7006C201.389 95.7241 199.258 108.069 196.239 113.558L195.192 113.814C189.265 115.263 183.017 113.392 178.862 108.924L184.252 67.0382Z" fill="#9F5526"/>
<path d="M179.392 58.8735C179.47 57.9909 180.12 57.265 180.988 57.0897L197.405 53.7758C198.715 53.5113 199.911 54.5816 199.793 55.9129L197.088 86.4186C197.01 87.3012 196.361 88.0271 195.492 88.2025L179.075 91.5164C177.765 91.7808 176.569 90.7106 176.687 89.3793L179.392 58.8735Z" fill="#3C552D"/>
<circle cx="196.273" cy="58.3416" r="1.98055" transform="rotate(5.06673 196.273 58.3416)" fill="#1D2D2A"/>
<circle cx="195.851" cy="63.1136" r="1.98055" transform="rotate(5.06673 195.851 63.1136)" fill="#1D2D2A"/>
<path d="M185.633 93.6244C186.931 94.6641 187.267 96.4997 186.422 97.9317C185.178 100.039 182.167 100.14 180.785 98.121L176.447 91.7837C175.56 90.4874 175.416 88.8212 176.068 87.3919C176.31 86.8605 176.988 86.6992 177.444 87.0644L185.633 93.6244Z" fill="#9F5526"/>
<path d="M199.286 88.533L191.403 90.9207L185.368 79.7159C184.982 78.9986 184.531 78.3183 184.02 77.6837L178.583 70.9286C177.285 69.317 177.451 66.9776 178.961 65.5643C179.277 65.2694 179.77 65.2821 180.07 65.5927L189.142 74.9925L199.286 88.533Z" fill="#9F5526"/>
<path fill-rule="evenodd" clip-rule="evenodd" d="M179.998 66.4541C179.566 66.8856 179.555 67.7471 180.195 68.3866C180.834 69.0261 181.696 69.0151 182.127 68.5836C182.322 68.3883 182.639 68.3883 182.834 68.5836C183.03 68.7788 183.03 69.0954 182.834 69.2907C181.917 70.2082 180.415 70.0208 179.488 69.0937C178.561 68.1666 178.373 66.6646 179.291 65.747C179.486 65.5518 179.803 65.5518 179.998 65.747C180.193 65.9423 180.193 66.2589 179.998 66.4541Z" fill="#1E0300"/>
<path d="M199.872 76.8127C200.153 77.3741 200.313 77.9883 200.34 78.6155L200.528 82.857C200.643 85.456 197.493 86.8282 195.668 84.9742C195.286 84.5862 195.024 84.0966 194.912 83.5638L193.924 78.8405C193.594 77.2616 192.935 75.7698 191.991 74.4621L187.211 67.8458C186.173 66.4082 186.484 64.4028 187.909 63.3474C188.172 63.1531 188.537 63.1845 188.763 63.4205L196.562 71.5847C197.528 72.5951 198.336 73.7442 198.962 74.9939L199.872 76.8127Z" fill="#9F5526"/>
<path fill-rule="evenodd" clip-rule="evenodd" d="M188.626 64.2022C188.194 64.6337 188.183 65.4952 188.823 66.1347C189.462 66.7742 190.324 66.7631 190.755 66.3316C190.95 66.1364 191.267 66.1364 191.462 66.3316C191.658 66.5269 191.658 66.8435 191.462 67.0387C190.545 67.9563 189.043 67.7689 188.116 66.8418C187.188 65.9147 187.001 64.4126 187.919 63.4951C188.114 63.2998 188.43 63.2998 188.626 63.4951C188.821 63.6904 188.821 64.0069 188.626 64.2022Z" fill="#1E0300"/>
<path d="M190.174 88.6308C192.406 90.7094 191.51 94.4295 188.575 95.2631C186.626 95.8169 184.576 94.7916 183.85 92.8994L182.727 89.973C182.498 89.3775 182.193 88.8143 181.819 88.2976L176.173 80.498C174.906 78.7486 175.178 76.3229 176.8 74.897C177.153 74.5863 177.693 74.6276 177.995 74.9884L186.737 85.4308L190.174 88.6308Z" fill="#9F5526"/>
<path fill-rule="evenodd" clip-rule="evenodd" d="M177.718 75.7549C177.286 76.1864 177.275 77.0479 177.914 77.6874C178.554 78.3269 179.415 78.3159 179.847 77.8844C180.042 77.6891 180.359 77.6891 180.554 77.8844C180.749 78.0796 180.749 78.3962 180.554 78.5915C179.637 79.509 178.134 79.3216 177.207 78.3945C176.28 77.4674 176.093 75.9654 177.01 75.0478C177.206 74.8526 177.522 74.8526 177.718 75.0478C177.913 75.2431 177.913 75.5597 177.718 75.7549Z" fill="#1E0300"/>
<path d="M198.312 114.117C193.151 112.706 187.227 105.588 188.923 99.2571C190.619 92.9264 196.778 88.9535 201.939 90.3654C201.939 90.3654 201.234 99.0401 198.735 107.003L198.312 114.117Z" fill="#D19151"/>
<rect width="12.9456" height="34.0421" transform="matrix(-1 0 0 1 118.053 65.0029)" fill="#9F5526"/>
<path d="M111.483 104.249C123.458 104.249 133.165 97.8755 133.165 90.0132L89.8018 90.0132C89.8018 97.8755 99.5089 104.249 111.483 104.249Z" fill="#9F5526"/>
<path d="M118.037 67.4186H105.164L118.037 88.0723L118.037 67.4186Z" fill="#671C24"/>
<path d="M105.076 76.6692C108.048 76.6843 111.125 79.5381 111.125 83.1782C111.125 86.8183 108.048 89.8848 105.076 89.8692L105.076 76.6692Z" fill="#D19151"/>
<path d="M95.2471 46.6907C95.2471 49.3444 97.8582 51.4957 101.079 51.4957V41.8857C97.8582 41.8857 95.2471 44.0369 95.2471 46.6907Z" fill="#9F5526"/>
<path d="M119.292 74.9589C108.488 74.9589 99.7298 66.2006 99.7298 55.3966L138.854 55.3966C138.854 66.2006 130.096 74.9589 119.292 74.9589Z" fill="#9F5526"/>
<rect width="39.1163" height="29.1139" transform="matrix(-1 0 0 1 138.839 26.3134)" fill="#9F5526"/>
<path fill-rule="evenodd" clip-rule="evenodd" d="M138.212 37.9821C134.099 35.1933 129.339 36.2946 126.325 39.8448C124.826 41.6111 123.574 43.4491 124.151 45.8368C124.482 47.2108 124.969 48.3633 125.373 49.1726C125.575 49.5777 125.757 49.8983 125.89 50.1192C125.956 50.2297 126.01 50.3154 126.048 50.3744C126.062 50.3969 126.075 50.4155 126.084 50.4301C126.391 51.1208 126.37 51.8052 126.121 52.2604C125.891 52.6842 125.412 53.0047 124.552 52.886C122.815 52.6464 120.528 52.9342 119.606 53.104C119.335 53.154 119.155 53.4147 119.205 53.6863C119.255 53.9579 119.516 54.1375 119.787 54.0874C120.676 53.9237 122.838 53.659 124.415 53.8767C125.627 54.0438 126.542 53.5784 127 52.7389C127.436 51.9386 127.401 50.898 126.977 49.977L126.959 49.9381L126.935 49.9031L126.935 49.903L126.935 49.9029L126.935 49.9029L126.935 49.9028L126.933 49.9004L126.925 49.8877C126.917 49.8758 126.904 49.8572 126.888 49.832C126.856 49.7817 126.807 49.7053 126.747 49.6046C126.626 49.4033 126.457 49.1055 126.268 48.7262C125.889 47.9664 125.433 46.8857 125.123 45.6022C124.673 43.7381 125.592 42.2535 127.088 40.4919C129.818 37.275 134.018 36.3468 137.651 38.8098C137.88 38.9647 138.19 38.9051 138.345 38.6765C138.5 38.4479 138.441 38.137 138.212 37.9821Z" fill="#1E0300"/>
<path fill-rule="evenodd" clip-rule="evenodd" d="M117.364 36.3621C118.041 36.4837 118.479 36.6625 118.682 36.8321C118.894 37.0092 119.209 36.9811 119.386 36.7692C119.563 36.5574 119.535 36.242 119.323 36.0649C118.913 35.7222 118.259 35.5069 117.541 35.3779C116.803 35.2451 115.918 35.1906 114.981 35.2225C113.112 35.2859 110.964 35.6951 109.271 36.5788C109.026 36.7065 108.931 37.0086 109.059 37.2534C109.186 37.4982 109.488 37.5931 109.733 37.4653C111.253 36.6721 113.242 36.2821 115.015 36.2219C115.897 36.1919 116.709 36.2443 117.364 36.3621Z" fill="#1E0300"/>
<path d="M122.476 55.6328C126.63 55.6328 129.997 57.4493 129.997 59.6901L114.954 59.6901C114.954 57.4493 118.322 55.6328 122.476 55.6328Z" fill="#671C24"/>
<path d="M122.475 63.4414C118.321 63.4414 114.953 61.6249 114.953 59.3841L129.996 59.3841C129.996 61.6249 126.629 63.4414 122.475 63.4414Z" fill="#671C24"/>
<path fill-rule="evenodd" clip-rule="evenodd" d="M112.447 56.3647C112.282 56.5863 112.328 56.8995 112.55 57.0643C114.475 58.4962 117.616 59.2803 120.647 59.5803C123.685 59.881 126.748 59.7081 128.57 59.1237C128.833 59.0394 128.978 58.7579 128.894 58.4949C128.81 58.232 128.528 58.0872 128.265 58.1715C126.628 58.6963 123.72 58.8797 120.745 58.5852C117.763 58.2899 114.848 57.5271 113.146 56.2618C112.925 56.0971 112.612 56.1431 112.447 56.3647Z" fill="#1E0300"/>
<path fill-rule="evenodd" clip-rule="evenodd" d="M99.6847 44.2841C99.4086 44.2819 99.1829 44.5039 99.1807 44.7801L99.1274 51.3305C99.1252 51.6066 99.3472 51.8323 99.6233 51.8345C99.8995 51.8368 100.125 51.6148 100.127 51.3386L100.181 44.7882C100.183 44.5121 99.9609 44.2864 99.6847 44.2841Z" fill="#1E0300"/>
<path d="M138.775 56.9463C135.804 56.9312 132.726 54.0773 132.726 50.4373C132.726 46.7972 135.804 43.7307 138.775 43.7463L138.775 56.9463Z" fill="#D19151"/>
<path d="M99.7393 28.6778C102.711 28.6929 105.788 31.5467 105.788 35.1868C105.788 38.8269 102.711 41.8934 99.7393 41.8778L99.7393 28.6778Z" fill="#D19151"/>
<path d="M57.0938 160.818L96.8163 152.069C112.043 171.751 151.374 183.715 151.374 183.715L186.022 187.867C186.022 187.867 166.016 202.947 133.706 201.709C113.505 200.935 98.0947 193.371 85.675 186.978C64.7541 176.208 57.0938 160.818 57.0938 160.818Z" fill="#9F5526"/>
<path fill-rule="evenodd" clip-rule="evenodd" d="M183.33 188.589C183.349 188.313 183.141 188.075 182.866 188.055L182.831 188.554L182.796 189.053C183.072 189.072 183.311 188.864 183.33 188.589ZM182.831 188.554C182.796 189.053 182.796 189.053 182.796 189.053L182.783 189.052L182.747 189.049L182.604 189.039C182.478 189.029 182.292 189.015 182.051 188.995C181.567 188.956 180.86 188.895 179.965 188.811C178.175 188.642 175.632 188.376 172.616 187.99C166.587 187.218 158.661 185.962 151.091 184.029C150.824 183.96 150.662 183.688 150.731 183.421C150.799 183.153 151.071 182.992 151.339 183.06C158.853 184.979 166.735 186.228 172.743 186.998C175.746 187.382 178.278 187.647 180.059 187.815C180.95 187.899 181.652 187.959 182.132 187.998C182.372 188.018 182.556 188.032 182.679 188.042L182.819 188.052L182.855 188.054L182.866 188.055C182.866 188.055 182.866 188.055 182.831 188.554Z" fill="#1E0300"/>
<path d="M129.383 175.003C126.022 180.756 116.84 183.851 109.772 179.771C102.705 175.69 100.214 164.814 103.575 159.061C103.575 159.061 110.852 164.593 115.559 167.645C120.631 170.934 129.383 175.003 129.383 175.003Z" fill="#D19151"/>
<path d="M137.297 201.79C136.785 196.277 141.822 191.12 148.786 190.459C155.751 189.798 161.444 194.042 162.377 198.442C162.377 198.442 155.344 200.341 150.244 201.043C145.229 201.732 137.297 201.79 137.297 201.79Z" fill="#D19151"/>
<ellipse cx="132.517" cy="27.896" rx="6.91453" ry="6.91453" transform="rotate(180 132.517 27.896)" fill="#1E0300"/>
<ellipse cx="119.047" cy="27.896" rx="6.91453" ry="6.91453" transform="rotate(180 119.047 27.896)" fill="#1E0300"/>
<ellipse cx="106.018" cy="27.896" rx="6.91453" ry="6.91453" transform="rotate(180 106.018 27.896)" fill="#1E0300"/>
<path d="M117.465 42.1293C117.465 42.9194 116.824 43.56 116.034 43.56C115.244 43.56 114.604 42.9194 114.604 42.1293C114.604 41.3391 115.244 40.6985 116.034 40.6985C116.824 40.6985 117.465 41.3391 117.465 42.1293Z" fill="#1E0300"/>
<path fill-rule="evenodd" clip-rule="evenodd" d="M119.344 39.971C119.203 39.7334 118.897 39.655 118.659 39.7958L118.914 40.2259C118.659 39.7958 118.659 39.7959 118.659 39.7958L118.661 39.7949L118.662 39.7943L118.663 39.7937C118.663 39.7936 118.663 39.7939 118.661 39.7949C118.657 39.797 118.648 39.8016 118.636 39.8079C118.611 39.8206 118.569 39.8413 118.508 39.8679C118.385 39.9212 118.188 39.9983 117.905 40.0827C117.339 40.2516 116.431 40.4502 115.102 40.5454C114.091 40.6177 112.723 40.4439 111.577 40.2415C111.011 40.1414 110.51 40.0365 110.151 39.9567C109.972 39.9168 109.828 39.8832 109.73 39.8597C109.681 39.848 109.643 39.8387 109.617 39.8325L109.589 39.8255L109.582 39.8237L109.58 39.8233C109.313 39.7558 109.041 39.918 108.973 40.1857C108.905 40.4535 109.068 40.7253 109.335 40.7929L109.458 40.3081C109.335 40.7929 109.335 40.7929 109.335 40.7929L109.339 40.7937L109.347 40.7958L109.379 40.8036C109.406 40.8103 109.446 40.82 109.497 40.8323C109.6 40.8569 109.749 40.8917 109.934 40.9328C110.304 41.015 110.819 41.1231 111.403 41.2263C112.559 41.4304 114.031 41.6246 115.173 41.5428C116.569 41.4429 117.55 41.2324 118.191 41.0409C118.511 40.9453 118.747 40.8544 118.907 40.7848C118.987 40.7499 119.048 40.7204 119.091 40.6983C119.113 40.6872 119.13 40.678 119.143 40.6709L119.159 40.6618L119.165 40.6585L119.167 40.6572L119.168 40.6566C119.168 40.6565 119.169 40.6561 118.914 40.2259L119.169 40.6561C119.407 40.5153 119.485 40.2085 119.344 39.971Z" fill="#1E0300"/>
<path d="M135.46 42.3685C135.46 43.1587 134.82 43.7993 134.029 43.7993C133.239 43.7993 132.599 43.1587 132.599 42.3685C132.599 41.5783 133.239 40.9377 134.029 40.9377C134.82 40.9377 135.46 41.5783 135.46 42.3685Z" fill="#1E0300"/>
<path fill-rule="evenodd" clip-rule="evenodd" d="M138.188 39.761C138.026 39.5371 137.713 39.4867 137.49 39.6484L137.782 40.0538C137.49 39.6484 137.489 39.6485 137.49 39.6484L137.491 39.6474L137.492 39.6467L137.493 39.6459C137.493 39.6458 137.493 39.6462 137.491 39.6474C137.487 39.6498 137.479 39.6551 137.468 39.6625C137.444 39.6774 137.404 39.7018 137.345 39.7339C137.228 39.798 137.038 39.8926 136.764 40.0022C136.216 40.2215 135.33 40.5012 134.015 40.716C133.015 40.8793 131.637 40.8298 130.477 40.7316C129.904 40.6831 129.395 40.6239 129.031 40.5768C128.849 40.5532 128.702 40.5327 128.602 40.5182C128.552 40.511 128.514 40.5052 128.488 40.5013L128.459 40.4968L128.452 40.4957L128.45 40.4955C128.178 40.4524 127.921 40.6385 127.878 40.9112C127.835 41.184 128.021 41.44 128.294 41.4832L128.372 40.9893C128.294 41.4832 128.294 41.4832 128.294 41.4832L128.297 41.4837L128.306 41.485L128.338 41.4899C128.366 41.4942 128.406 41.5003 128.459 41.5079C128.563 41.523 128.715 41.5442 128.903 41.5685C129.278 41.617 129.801 41.6781 130.393 41.7281C131.562 41.827 133.045 41.8876 134.176 41.703C135.557 41.4774 136.514 41.1792 137.136 40.9307C137.446 40.8065 137.673 40.6948 137.826 40.6109C137.902 40.569 137.96 40.5341 138.001 40.5082C138.022 40.4952 138.038 40.4844 138.05 40.4762L138.066 40.4657L138.071 40.4619L138.073 40.4604L138.074 40.4597C138.074 40.4596 138.075 40.4591 137.782 40.0538L138.075 40.4591C138.299 40.2974 138.349 39.9849 138.188 39.761Z" fill="#1E0300"/>
</g>
</g>
<defs>
<clipPath id="clip0_65_23795">
<rect width="288" height="216" fill="white"/>
</clipPath>
<clipPath id="clip1_65_23795">
<rect width="288" height="216" fill="white"/>
</clipPath>
</defs>
</svg>
