<svg width="124" height="32" viewBox="0 0 124 32" fill="none" xmlns="http://www.w3.org/2000/svg">
<path d="M78.2397 8.94486L71.5723 20.6156H68.5448L66.7949 8.94486H69.4898L70.5748 18.131L75.5273 8.94486H78.2397ZM85.2883 13.7741C85.2883 16.5387 81.2809 16.9062 79.0934 16.9062C79.0059 17.1511 78.9709 17.4661 78.9709 17.7285C78.9709 18.9009 79.8809 19.3733 80.9484 19.3733C81.8583 19.3733 82.8908 19.0583 83.6433 18.5684L83.5558 20.1257C82.5583 20.6156 81.4209 20.8081 80.2134 20.8081C78.3059 20.8081 76.5034 19.9857 76.5034 17.8335C76.5034 14.3515 79.1459 11.657 82.2608 11.657C83.6783 11.657 85.2883 12.1644 85.2883 13.7741ZM83.1008 13.9316C83.1008 13.2842 82.6283 13.0742 82.0508 13.0742C80.7209 13.0742 79.7584 14.4565 79.3209 15.5939C80.8959 15.5939 83.1008 15.3139 83.1008 13.9316ZM94.8394 13.8091C94.8394 14.1241 94.8044 14.4565 94.7344 14.8065L93.5094 20.6156H91.0944L92.1969 15.3314C92.2669 15.0164 92.3369 14.719 92.3369 14.4215C92.3369 13.7566 92.0219 13.2842 91.1819 13.2842C89.8694 13.2842 89.2394 14.4565 88.9944 15.5939L87.9269 20.6156H85.4945L86.9294 13.7916C87.0694 13.1442 87.1919 12.4968 87.2619 11.8319H89.5369L89.2744 13.3892C90.1144 12.2169 90.9894 11.657 92.4419 11.657C93.8594 11.657 94.8394 12.3568 94.8394 13.8091ZM106.455 8L104.285 18.166C104.075 19.1633 103.953 19.8982 103.848 20.6156H101.608L101.835 19.1108C101.03 20.2657 99.998 20.8081 98.7205 20.8081C96.568 20.8081 95.903 19.1458 95.903 17.816C95.903 14.4215 97.9155 11.657 100.593 11.657C101.748 11.657 102.675 12.2344 102.938 13.1792L104.04 8H106.455ZM102.483 15.0339C102.483 14.1241 102.168 13.2842 101.118 13.2842C99.2105 13.2842 98.458 15.9263 98.458 17.4661C98.458 18.3934 98.808 19.1808 99.858 19.1808C101.66 19.1808 102.483 16.5037 102.483 15.0339ZM116.076 12.0419L114.869 17.5011C114.554 18.9184 114.466 19.9507 114.449 20.6156H111.981C112.016 20.1782 112.174 19.3558 112.314 18.5509C111.684 19.6882 110.651 20.8081 108.937 20.8081C107.169 20.8081 106.277 19.6358 106.277 18.0085C106.277 14.0716 109.794 11.6395 113.136 11.6395C114.151 11.6395 115.464 11.8144 116.076 12.0419ZM113.381 13.3717C113.154 13.2842 112.909 13.2667 112.681 13.2667C110.669 13.2667 108.832 15.4014 108.832 17.746C108.832 18.5334 109.112 19.1808 110.021 19.1808C111.246 19.1808 112.419 17.5011 112.909 15.4014L113.381 13.3717ZM124 12.0594L123.475 13.5817C122.81 13.2842 122.093 13.0917 121.34 13.0917C120.64 13.0917 119.52 13.3192 119.52 14.1941C119.52 15.4714 123.23 15.4714 123.23 17.7985C123.23 20.1257 120.815 20.8081 118.89 20.8081C117.928 20.8081 116.983 20.6681 116.073 20.3706L116.563 18.7259C117.28 19.1283 118.033 19.3383 118.855 19.3383C119.625 19.3383 120.868 19.0408 120.868 18.096C120.868 16.7312 117.193 16.8187 117.193 14.474C117.193 12.2869 119.678 11.6395 121.445 11.6395C122.285 11.6395 123.195 11.7969 124 12.0594ZM62.2246 13.2723C60.2022 13.2723 58.3204 15.3474 58.3204 17.8096C58.3204 18.601 58.6019 19.1814 59.4635 19.1814C61.1167 19.1814 62.0312 17.071 62.4005 15.5058L62.9106 13.3777C62.6819 13.3074 62.4532 13.2723 62.2246 13.2723ZM63.9482 19.4628C63.1568 23.0152 61.8553 24.6332 57.9512 24.6332C56.7728 24.6332 55.6473 24.4047 54.8911 24.1408L55.3659 22.3997C56.2101 22.857 57.1069 22.9978 57.8984 22.9978C60.0967 22.9978 60.9409 21.837 61.3454 20.1839L61.6267 19.0231C60.7826 20.1486 59.9032 20.6411 58.4435 20.6411C56.6322 20.6411 55.7527 19.5155 55.7527 18.0206C55.7527 14.0461 59.3757 11.6367 62.7523 11.6367C63.7195 11.6367 64.933 11.8125 65.6013 12.0237L63.9482 19.4628ZM51.989 13.2547C49.9666 13.2547 48.1199 15.4003 48.1199 17.7569C48.1199 18.5483 48.4013 19.199 49.3158 19.199C50.5468 19.199 51.7252 17.5107 52.2177 15.4003L52.6925 13.3601C52.4638 13.2723 52.2177 13.2547 51.989 13.2547ZM54.1873 17.5107C53.8707 18.9352 53.7828 19.9727 53.7653 20.6411H51.2855C51.3208 20.2014 51.479 19.3748 51.6196 18.5658C50.9866 19.709 49.949 20.8344 48.2256 20.8344C46.4492 20.8344 45.5524 19.6562 45.5524 18.0206C45.5524 14.0636 49.0872 11.6191 52.4463 11.6191C53.4663 11.6191 54.7852 11.795 55.4008 12.0237L54.1873 17.5107ZM41.0498 10.6342H39.6781L38.8339 14.5736H39.7131C41.4367 14.5736 43.0195 14.1868 43.0195 12.1291C43.0195 11.197 42.0522 10.6342 41.0498 10.6342ZM40.7333 16.2972H38.4822L37.5677 20.641H35L37.4974 8.91083H42.3336C44.3033 8.91083 45.6399 10.3001 45.6399 11.883C45.6399 15.0309 43.1425 16.2972 40.7333 16.2972Z" fill="black"/>
<path d="M15 31C23.2843 31 30 24.3124 30 16.0629C30 7.81336 23.2843 1.12579 15 1.12579C6.71573 1.12579 0 7.81336 0 16.0629C0 24.3124 6.71573 31 15 31Z" fill="black"/>
<path d="M14.9992 26.4595C21.8877 26.4595 27.472 20.8986 27.472 14.0389C27.472 7.17927 21.8877 1.61841 14.9992 1.61841C8.11064 1.61841 2.52637 7.17927 2.52637 14.0389C2.52637 20.8986 8.11064 26.4595 14.9992 26.4595Z" fill="#DDE460"/>
<path d="M14.9993 26.7866C12.4385 26.7866 9.93527 26.0304 7.80605 24.6137C5.67683 23.1969 4.01731 21.1833 3.03734 18.8273C2.05737 16.4714 1.80096 13.879 2.30055 11.3779C2.80013 8.87688 4.03327 6.57952 5.84402 4.77636C7.65477 2.9732 9.96181 1.74524 12.4734 1.24775C14.985 0.750257 17.5883 1.00559 19.9542 1.98145C22.32 2.95731 24.3421 4.60987 25.7648 6.73016C27.1875 8.85045 27.9469 11.3432 27.9469 13.8933C27.9469 17.3128 26.5828 20.5923 24.1547 23.0102C21.7265 25.4282 18.4332 26.7866 14.9993 26.7866ZM14.9993 1.95506C12.6242 1.95507 10.3024 2.65663 8.32782 3.971C6.3532 5.28537 4.81447 7.15346 3.90631 9.33891C2.99815 11.5244 2.76139 13.929 3.22598 16.2484C3.69057 18.5679 4.83563 20.6981 6.51627 22.3693C8.19692 24.0406 10.3376 25.1779 12.6675 25.6373C14.9974 26.0967 17.4118 25.8575 19.6052 24.9501C21.7986 24.0427 23.6724 22.5078 24.9895 20.5396C26.3067 18.5715 27.0079 16.2585 27.0046 13.8933C27.0027 10.7228 25.7374 7.68261 23.4865 5.44027C21.2357 3.19794 18.1832 1.93674 14.9993 1.93357V1.95506Z" fill="black"/>
<path d="M12.9109 30.0361C18.6288 30.0361 23.2641 25.4203 23.2641 19.7263C23.2641 14.0323 18.6288 9.41644 12.9109 9.41644C7.19293 9.41644 2.55762 14.0323 2.55762 19.7263C2.55762 25.4203 7.19293 30.0361 12.9109 30.0361Z" fill="#A7DCDA"/>
<path d="M12.9324 30.5065C12.1628 30.5073 11.3953 30.4273 10.6426 30.2677C8.54985 29.8206 6.63721 28.7656 5.14649 27.2362C3.65578 25.7067 2.65393 23.7714 2.26761 21.675C1.88128 19.5786 2.12784 17.4152 2.97609 15.4584C3.82435 13.5015 5.23621 11.839 7.0332 10.6811C8.83018 9.52316 10.9316 8.92182 13.0717 8.95306C15.2119 8.98431 17.2947 9.64675 19.0568 10.8566C20.8189 12.0665 22.1812 13.7695 22.9715 15.7503C23.7618 17.7311 23.9445 19.9008 23.4967 21.985C22.9781 24.3907 21.6491 26.5475 19.7301 28.0976C17.8112 29.6476 15.4176 30.4976 12.9468 30.5065H12.9324ZM12.9084 9.88204C11.0421 9.88228 9.2139 10.4086 7.63537 11.4002C6.05684 12.3918 4.79244 13.8081 3.98841 15.4854C3.18437 17.1626 2.87356 19.0322 3.09191 20.878C3.31026 22.7238 4.04886 24.4703 5.22228 25.9156C6.39569 27.3608 7.95599 28.4458 9.7227 29.0449C11.4894 29.6441 13.3904 29.733 15.2057 29.3014C17.021 28.8697 18.6766 27.9352 19.9808 26.6058C21.2851 25.2764 22.1848 23.6065 22.5759 21.7892C22.8844 20.3539 22.8667 18.868 22.5241 17.4404C22.1816 16.0127 21.5228 14.6794 20.5961 13.5379C19.6693 12.3965 18.4981 11.4758 17.1679 10.8432C15.8378 10.2107 14.3825 9.88228 12.9084 9.88204Z" fill="black"/>
<path d="M21.9557 26.5573C25.5032 26.5573 28.3791 23.6935 28.3791 20.1608C28.3791 16.6282 25.5032 13.7643 21.9557 13.7643C18.4081 13.7643 15.5322 16.6282 15.5322 20.1608C15.5322 23.6935 18.4081 26.5573 21.9557 26.5573Z" fill="#F6DF3F"/>
<path d="M21.9549 27.0253C20.5915 27.0253 19.2588 26.6227 18.1252 25.8684C16.9915 25.1142 16.108 24.0421 15.5863 22.7878C15.0645 21.5334 14.928 20.1532 15.194 18.8216C15.46 17.4901 16.1165 16.2669 17.0806 15.3069C18.0446 14.3469 19.2729 13.6931 20.6101 13.4283C21.9473 13.1634 23.3333 13.2993 24.5929 13.8189C25.8525 14.3384 26.9291 15.2183 27.6865 16.3471C28.444 17.476 28.8483 18.8032 28.8483 20.1608C28.8464 21.9808 28.1195 23.7257 26.8272 25.0127C25.5348 26.2996 23.7826 27.0234 21.9549 27.0253ZM21.9549 14.2323C20.7767 14.2318 19.6249 14.5793 18.6451 15.2309C17.6653 15.8824 16.9015 16.8086 16.4505 17.8925C15.9994 18.9763 15.8812 20.169 16.111 21.3197C16.3407 22.4704 16.908 23.5274 17.7411 24.357C18.5742 25.1866 19.6356 25.7515 20.7912 25.9803C21.9467 26.2091 23.1444 26.0914 24.2328 25.6422C25.3212 25.193 26.2514 24.4325 26.9056 23.4568C27.5599 22.4811 27.9089 21.3341 27.9084 20.1608C27.9065 18.5891 27.2786 17.0822 26.1626 15.9708C25.0465 14.8594 23.5333 14.2342 21.9549 14.2323Z" fill="black"/>
</svg>
