<svg width="22" height="22" viewBox="0 0 22 22" fill="none" xmlns="http://www.w3.org/2000/svg">
<path fill-rule="evenodd" clip-rule="evenodd" d="M1.41376 8.17158C-0.148339 9.73368 -0.148335 12.2663 1.41376 13.8284L8.17112 20.5858C9.73322 22.1479 12.2659 22.1479 13.828 20.5858L20.5853 13.8284C22.1474 12.2663 22.1474 9.73367 20.5853 8.17157L13.828 1.41422C12.2659 -0.147881 9.73321 -0.147877 8.17112 1.41422L1.41376 8.17158ZM2.82797 12.4142C2.04693 11.6332 2.04693 10.3668 2.82797 9.58579L5.06732 7.34645C5.14162 7.31248 5.21034 7.27871 5.26133 7.25365C5.28387 7.24258 5.30354 7.23291 5.31804 7.22601C5.45076 7.16285 5.56368 7.11583 5.67879 7.0855C5.87074 7.03494 6.12783 7.01206 6.51301 7.20218C6.51301 7.20218 6.51431 7.20346 6.51753 7.20588C6.53131 7.21622 6.57571 7.24952 6.65448 7.32412C6.76321 7.42707 6.89597 7.56849 7.05267 7.74713C7.28516 8.01216 7.53524 8.31816 7.80364 8.64657C7.902 8.76693 8.00302 8.89054 8.10634 9.016C8.47629 9.46523 8.87812 9.941 9.25219 10.3076C9.41763 10.4697 9.59915 10.6321 9.78858 10.7667C9.59921 10.9013 9.41773 11.0637 9.25234 11.2258C8.87827 11.5924 8.47643 12.0681 8.10649 12.5174C8.0031 12.6429 7.90221 12.7664 7.80378 12.8868C7.53542 13.2152 7.28528 13.5212 7.05282 13.7862C6.89612 13.9649 6.76336 14.1063 6.65463 14.2092C6.5759 14.2838 6.53157 14.3171 6.51779 14.3275L6.51459 14.3299L6.51309 14.3312C6.16329 14.5028 5.78338 14.5072 5.38648 14.421C5.08072 14.3546 4.89574 14.2784 4.6985 14.1972C4.65073 14.1775 4.60224 14.1576 4.55114 14.1374L2.82797 12.4142ZM6.77312 16.3594L9.58533 19.1716C10.3664 19.9526 11.6327 19.9526 12.4138 19.1716L15.226 16.3594C15.0141 16.303 14.7987 16.2236 14.5828 16.1157C14.3412 15.9949 14.1287 15.8123 13.9694 15.6614C13.7964 15.4976 13.6176 15.3043 13.4429 15.1051C13.1854 14.8116 12.902 14.4648 12.6264 14.1276L12.6251 14.126C12.5317 14.0117 12.4391 13.8984 12.3488 13.7888C11.9763 13.3365 11.6358 12.9372 11.347 12.6541C11.222 12.5317 11.1269 12.4512 11.0606 12.4031L10.9386 12.4031C10.8724 12.4511 10.7773 12.5316 10.6522 12.6541C10.3634 12.9372 10.0228 13.3365 9.65037 13.7888C9.56002 13.8985 9.46745 14.0117 9.37399 14.1261L9.37303 14.1273C9.09738 14.4646 8.81381 14.8116 8.55632 15.1051C8.3816 15.3043 8.20281 15.4976 8.02981 15.6614C7.87049 15.8123 7.65799 15.9949 7.41638 16.1157C7.20041 16.2236 6.985 16.303 6.77312 16.3594ZM17.4479 14.1374L19.1711 12.4142C19.9522 11.6332 19.9522 10.3668 19.1711 9.58579L16.9318 7.34646C16.8575 7.31249 16.7887 7.27872 16.7378 7.25365C16.715 7.24248 16.6956 7.23296 16.681 7.22602C16.5483 7.16286 16.4354 7.11583 16.3203 7.08551C16.1283 7.03493 15.8712 7.01206 15.486 7.20218C15.486 7.20218 15.4845 7.20349 15.4813 7.20593C15.4675 7.21629 15.4232 7.24959 15.3445 7.32412C15.2358 7.42707 15.103 7.56849 14.9463 7.74713C14.7139 8.01214 14.4638 8.31811 14.1954 8.64649L14.1937 8.64867C14.096 8.76819 13.9952 8.89145 13.8927 9.016C13.5227 9.46523 13.1209 9.941 12.7468 10.3076C12.5814 10.4697 12.3999 10.6321 12.2105 10.7667C12.3999 10.9013 12.5814 11.0636 12.7468 11.2258C13.1209 11.5924 13.5227 12.0681 13.8927 12.5174C13.9961 12.6429 14.097 12.7664 14.1954 12.8868C14.4638 13.2152 14.7139 13.5212 14.9464 13.7862C15.1031 13.9649 15.2358 14.1063 15.3445 14.2092C15.4233 14.2839 15.4677 14.3172 15.4815 14.3275C15.4847 14.3299 15.4862 14.3312 15.4862 14.3312C15.836 14.5028 16.2158 14.5072 16.6127 14.421C16.9184 14.3546 17.1034 14.2784 17.3006 14.1972C17.3483 14.1776 17.3969 14.1576 17.4479 14.1374ZM14.8726 5.28724L12.4138 2.82843C11.6327 2.04738 10.3664 2.04738 9.58533 2.82843L7.1265 5.28726C7.22177 5.32544 7.31837 5.36879 7.41623 5.4177C7.65784 5.53844 7.87034 5.72105 8.02966 5.87191C8.20266 6.03574 8.38145 6.22905 8.55618 6.42824C8.81368 6.72179 9.09716 7.06868 9.37283 7.40602C9.46664 7.52081 9.55955 7.6345 9.65022 7.7446C10.0227 8.19691 10.3633 8.59617 10.6521 8.87921C10.7771 9.0017 10.8721 9.08215 10.9384 9.13022L11.0605 9.13029C11.1268 9.08222 11.2219 9.00176 11.3469 8.87921C11.6357 8.59617 11.9763 8.19691 12.3488 7.7446C12.4394 7.63453 12.5323 7.52088 12.6261 7.40612C12.9017 7.0688 13.1853 6.72178 13.4428 6.42824C13.6176 6.22905 13.7963 6.03574 13.9693 5.87191C14.1287 5.72105 14.3412 5.53844 14.5828 5.4177C14.6807 5.36878 14.7773 5.32542 14.8726 5.28724ZM11.0001 12.3634L10.9991 12.3634L10.9946 12.3659L11.0001 12.3634Z" fill="#222222"/>
</svg>
