<svg width="24" height="24" viewBox="0 0 24 24" fill="none" xmlns="http://www.w3.org/2000/svg">
<path fill-rule="evenodd" clip-rule="evenodd" d="M17.4613 0.545767C17.9641 0.529346 18.4262 0.819853 18.6296 1.27949L19.5973 3.21496L21.824 3.5466C22.3189 3.58592 22.7368 3.92991 22.8705 4.40794C23.042 4.88897 22.9232 5.42613 22.5642 5.79016L22.5576 5.79666L20.969 7.29176L21.3534 9.50201C21.4542 10 21.2393 10.5084 20.8131 10.7833C20.6328 10.9329 20.3643 11.0946 20.0602 11.0765L20.043 11.0755L19.4991 10.9667L17.4689 9.90325L15.4599 10.9553C15.0264 11.1569 14.5175 11.1102 14.1274 10.8337C13.7228 10.5449 13.5127 10.0547 13.5826 9.56246L13.5838 9.55478L13.9688 7.34094L12.3727 5.83839C12.0198 5.47678 11.8839 4.95577 12.0152 4.46783L12.0201 4.44947L12.0278 4.43207C12.2219 3.99104 12.6251 3.67744 13.1004 3.59781L13.1049 3.59711L15.3389 3.26437L16.3119 1.27219C16.5333 0.837941 16.9742 0.559332 17.4613 0.545767ZM16.6056 4.01543L17.4703 2.32722L18.2771 4.10219L18.2806 4.10883C18.4864 4.49778 18.8659 4.76544 19.3013 4.82934L21.2363 5.1238L19.9043 6.41543C19.5678 6.71991 19.4094 7.17494 19.4843 7.62278L19.8009 9.44341L18.0449 8.52357L17.5047 8.41554L17.4913 8.41434C17.2734 8.39471 17.0543 8.43857 16.8607 8.54046L15.1167 9.45398L15.4534 7.47596L15.4536 7.47484C15.523 7.05544 15.3882 6.62797 15.0905 6.32451L13.6662 4.98161L15.5926 4.73034L15.6016 4.72849C16.0184 4.64272 16.3806 4.38706 16.601 4.02303L16.6056 4.01543Z" fill="#222222"/>
<path fill-rule="evenodd" clip-rule="evenodd" d="M5.71582 9.79486C6.22932 9.79486 6.65142 10.1811 6.7091 10.6783L6.71582 10.7949H7.30582C8.00538 10.7966 8.69071 10.9801 9.29369 11.3271L9.51582 11.4649L11.5158 12.7949H14.2158C15.8136 12.7949 17.1195 14.0436 17.2107 15.6186L17.2158 15.7949L17.5058 15.6949C19.2462 15.0806 21.1766 15.4765 22.5323 16.7093L22.7058 16.8749L23.3458 17.5549C23.7018 17.9109 23.8548 18.4219 23.7538 18.9139C23.6638 19.3576 23.3786 19.734 22.982 19.9419L22.8458 20.0049L15.2458 23.0749C14.6078 23.3189 13.9298 23.4479 13.2458 23.4549C12.6321 23.4531 12.0235 23.3508 11.444 23.1522L11.1568 23.0449L6.60582 21.2249C6.46093 21.5306 6.17145 21.7392 5.84132 21.7853L5.71582 21.7949H1.21582C0.70232 21.7949 0.280218 21.4086 0.222538 20.9114L0.21582 20.7949V10.7949C0.21582 10.2823 0.601244 9.85939 1.09907 9.80159L1.21582 9.79486H5.71582ZM7.30582 12.7949H6.71582V19.1149L11.9068 21.2149C12.6878 21.5174 13.5461 21.5426 14.3408 21.2905L14.5558 21.2149L21.3958 18.4749L21.2558 18.3249C20.4859 17.5522 19.3608 17.2613 18.3199 17.5533L18.1258 17.6149L15.2158 18.6149C14.9598 18.7101 14.6923 18.7681 14.4204 18.7876L14.2158 18.7949H11.2158C10.6628 18.7949 10.2158 18.3469 10.2158 17.7949C10.2158 17.2823 10.6012 16.8594 11.0991 16.8016L11.2158 16.7949H14.2158C14.7688 16.7949 15.2158 16.3469 15.2158 15.7949C15.2158 15.2823 14.8304 14.8594 14.3326 14.8016L14.2158 14.7949H11.2158C11.059 14.7941 10.9048 14.7561 10.7664 14.6847L10.6658 14.6249L8.41582 13.1249C8.13211 12.9414 7.80945 12.8315 7.47431 12.8025L7.30582 12.7949ZM4.71582 11.7949H2.21582V19.7949H4.71582V11.7949Z" fill="#222222"/>
</svg>
