<svg width="24" height="24" viewBox="0 0 24 24" fill="none" xmlns="http://www.w3.org/2000/svg">
<path d="M2.70711 10.7021C2.51957 10.8896 2.26522 10.995 2 10.995C1.73478 10.995 1.48043 10.8896 1.29289 10.7021C1.10536 10.5146 1 10.2602 1 9.995V7.995C1 7.19936 1.31607 6.43629 1.87868 5.87368C2.44129 5.31108 3.20435 4.995 4 4.995H19.58L17.29 2.705C17.1038 2.51764 16.9992 2.26419 16.9992 2.00001C16.9992 1.73582 17.1038 1.48237 17.29 1.295C17.383 1.20128 17.4936 1.12688 17.6154 1.07611C17.7373 1.02534 17.868 0.999207 18 0.999207C18.132 0.999207 18.2627 1.02534 18.3846 1.07611C18.5064 1.12688 18.617 1.20128 18.71 1.295L22.71 5.295C22.8947 5.48127 22.9989 5.73266 23 5.995C23.0008 6.12661 22.9755 6.25707 22.9258 6.37891C22.876 6.50075 22.8027 6.61156 22.71 6.705L18.71 10.705C18.617 10.7987 18.5064 10.8731 18.3846 10.9239C18.2627 10.9747 18.132 11.0008 18 11.0008C17.868 11.0008 17.7373 10.9747 17.6154 10.9239C17.4936 10.8731 17.383 10.7987 17.29 10.705C17.1963 10.612 17.1219 10.5014 17.0711 10.3796C17.0203 10.2577 16.9942 10.127 16.9942 9.995C16.9942 9.86299 17.0203 9.73229 17.0711 9.61043C17.1219 9.48857 17.1963 9.37797 17.29 9.285L19.59 6.995H4C3.73478 6.995 3.48043 7.10036 3.29289 7.2879C3.10536 7.47543 3 7.72979 3 7.995V9.995C3 10.2602 2.89464 10.5146 2.70711 10.7021Z" fill="#222222"/>
<path d="M21.2929 13.2879C21.4804 13.1004 21.7348 12.995 22 12.995C22.2652 12.995 22.5196 13.1004 22.7071 13.2879C22.8947 13.4754 23 13.7298 23 13.995V15.995C23 16.7906 22.6839 17.5537 22.1213 18.1163C21.5587 18.6789 20.7957 18.995 20 18.995H4.41002L6.71002 21.285C6.80375 21.378 6.87814 21.4886 6.92891 21.6104C6.97968 21.7323 7.00582 21.863 7.00582 21.995C7.00582 22.127 6.97968 22.2577 6.92891 22.3796C6.87814 22.5014 6.80375 22.612 6.71002 22.705C6.61705 22.7987 6.50645 22.8731 6.38459 22.9239C6.26273 22.9747 6.13203 23.0008 6.00002 23.0008C5.868 23.0008 5.7373 22.9747 5.61544 22.9239C5.49358 22.8731 5.38298 22.7987 5.29002 22.705L1.29002 18.705C1.19734 18.6116 1.12401 18.5007 1.07425 18.3789C1.02448 18.2571 0.999256 18.1266 1.00002 17.995C1.00112 17.7327 1.10527 17.4813 1.29002 17.295L5.29002 13.295C5.38298 13.2013 5.49358 13.1269 5.61544 13.0761C5.7373 13.0253 5.868 12.9992 6.00002 12.9992C6.13203 12.9992 6.26273 13.0253 6.38459 13.0761C6.50645 13.1269 6.61705 13.2013 6.71002 13.295C6.89627 13.4824 7.00081 13.7358 7.00081 14C7.00081 14.2642 6.89627 14.5176 6.71002 14.705L4.42002 16.995H20C20.2652 16.995 20.5196 16.8896 20.7071 16.7021C20.8947 16.5146 21 16.2602 21 15.995V13.995C21 13.7298 21.1054 13.4754 21.2929 13.2879Z" fill="#222222"/>
</svg>
